<svg width="240" height="132" viewBox="0 0 240 132" fill="none" xmlns="http://www.w3.org/2000/svg"><path d="M80.17 16.80L81.56 16.64L82.83 16.32L84.02 15.88L85.39 15.71L86.93 15.80L88.12 15.33L89.49 15.14L90.99 15.17L92.53 15.27L93.86 14.95L95.49 15.19L96.95 15.06L98.40 14.86L99.98 14.94L101.40 14.53L102.96 14.45L104.62 14.64L106.19 14.52L107.67 13.99L109.26 13.85L110.87 13.82L112.41 13.35L114.03 13.38L115.61 13.13L117.19 13.01L118.76 12.95L120.33 12.61L121.89 12.41L123.43 12.49L125.00 12.11L126.53 12.25L128.05 12.33L129.61 12.15L131.15 12.20L132.61 12.59L134.08 12.93L135.59 13.13L137.22 13.02L138.73 13.34L140.08 14.09L141.58 14.44L143.14 14.66L144.76 14.79L146.16 15.41L147.62 15.86L149.12 16.24L150.70 16.47L152.15 16.92L153.59 17.34L155.13 17.59L156.49 18.07L157.76 18.62L159.23 18.89L160.61 19.23L161.99 19.56L163.30 19.93L164.86 20.02L166.13 20.42L167.25 20.93L168.78 21.04L170.15 21.31L171.49 21.60L172.67 22.02L173.98 22.34L175.24 22.70L176.18 23.30L177.65 23.49L178.67 24.02L180.15 24.21L181.35 24.60L182.45 25.04L183.70 25.38L184.72 25.84L186.31 25.94L187.20 26.46L188.43 26.76L189.61 27.07L191.00 27.24L192.00 27.63L193.00 28.00L194.20 28.25L195.44 28.48L196.66 28.72L197.44 29.18L198.56 29.47L199.64 29.80L200.47 30.24L201.25 30.72L202.38 31.07L203.19 31.57L203.71 32.21L204.68 32.68L205.26 33.33L205.99 33.95L206.81 34.55L207.78 35.11L208.48 35.80L208.84 36.62L209.55 37.32L210.58 37.94L211.19 38.70L211.75 39.49L212.51 40.22L213.53 40.88L214.36 41.60L214.94 42.39L215.81 43.10L216.61 43.83L217.55 44.53L218.40 45.24L219.23 45.97L220.47 46.61L221.50 47.29L222.02 48.08L223.05 48.77L224.27 49.43L224.78 50.22L226.01 50.89L226.79 51.64L227.33 52.42L227.92 53.20L228.68 53.96L229.21 54.74L230.16 55.48L230.28 56.30L230.79 57.09L230.97 57.90L231.63 58.67L231.95 59.46L232.06 60.27L232.06 61.08L232.12 61.88L232.07 62.68L232.13 63.48L231.97 64.28L232.09 65.07L232.14 65.87L231.58 66.67L231.61 67.46L231.35 68.26L231.36 69.07L231.28 69.87L230.95 70.68L230.92 71.49L231.06 72.31L230.66 73.10L230.28 73.90L230.31 74.71L230.37 75.53L230.06 76.31L229.58 77.07L229.32 77.84L229.27 78.62L229.25 79.41L228.93 80.14L228.53 80.86L228.22 81.59L227.60 82.26L227.12 82.94L226.76 83.63L226.36 84.32L225.94 84.99L225.35 85.64L224.38 86.22L224.23 86.95L223.46 87.57L222.72 88.20L222.06 88.85L221.31 89.48L220.92 90.19L219.94 90.78L219.37 91.47L218.51 92.09L218.21 92.84L217.56 93.52L216.80 94.16L216.06 94.80L215.38 95.45L214.65 96.09L214.00 96.74L213.03 97.28L212.39 97.92L211.67 98.53L210.90 99.12L210.00 99.67L209.34 100.30L208.19 100.76L207.50 101.40L206.61 101.98L205.51 102.48L204.42 103.01L203.46 103.62L202.19 104.12L201.32 104.82L200.15 105.42L199.16 106.13L197.60 106.59L196.79 107.46L195.31 108.00L194.25 108.79L192.93 109.46L191.61 110.13L190.09 110.69L188.65 111.29L187.65 112.17L186.04 112.63L184.65 113.21L183.41 113.89L181.75 114.21L180.68 114.96L179.24 115.38L177.77 115.74L176.22 115.99L174.77 116.29L173.65 116.86L172.22 117.12L170.57 117.16L169.13 117.37L167.68 117.57L166.04 117.57L164.56 117.74L163.24 118.10L161.68 118.21L159.99 118.17L158.65 118.62L156.94 118.59L155.55 119.05L153.88 119.13L152.18 119.15L150.67 119.51L149.18 119.92L147.54 120.08L146.04 120.49L144.45 120.74L143.06 121.42L141.56 121.88L139.91 121.90L138.46 122.44L136.95 122.81L135.49 123.35L133.88 123.29L132.41 123.77L130.87 123.89L129.42 124.56L127.85 124.49L126.34 124.98L124.77 124.92L123.24 125.57L121.66 125.50L120.07 125.62L118.48 125.67L116.87 125.89L115.26 126.00L113.63 126.15L111.96 126.48L110.35 126.35L108.65 126.72L107.02 126.74L105.41 126.61L103.73 126.81L102.21 126.47L100.50 126.74L98.92 126.63L97.42 126.33L95.80 126.33L94.30 126.05L92.79 125.80L91.32 125.47L89.78 125.26L88.31 124.91L86.85 124.52L85.35 124.18L83.79 123.90L82.22 123.61L80.98 122.81L79.39 122.49L77.86 122.07L76.49 121.42L74.98 120.94L73.63 120.28L72.10 119.82L70.54 119.40L68.80 119.16L67.36 118.61L65.91 118.11L64.25 117.82L63.00 117.17L61.47 116.80L59.95 116.44L58.40 116.12L56.99 115.71L55.40 115.44L53.95 115.08L52.58 114.67L51.23 114.25L49.96 113.77L48.24 113.59L47.26 112.92L45.80 112.55L44.78 111.89L43.61 111.32L42.22 110.85L41.20 110.17L40.22 109.45L39.08 108.80L38.06 108.08L37.04 107.35L35.82 106.71L34.93 105.91L34.01 105.12L32.92 104.41L32.00 103.62L31.23 102.78L30.24 102.05L29.10 101.37L28.16 100.63L27.54 99.78L26.37 99.13L25.52 98.39L24.87 97.59L23.82 96.93L23.07 96.18L22.03 95.52L21.51 94.72L20.76 93.99L20.02 93.26L19.27 92.53L18.85 91.73L18.23 90.98L17.50 90.26L17.12 89.47L16.99 88.63L16.43 87.89L16.26 87.07L16.11 86.27L15.65 85.53L15.47 84.75L15.34 83.98L15.17 83.22L14.98 82.48L15.28 81.68L14.89 80.99L14.87 80.26L15.01 79.52L14.94 78.82L15.01 78.11L14.84 77.43L15.03 76.71L14.84 76.04L14.87 75.34L15.00 74.64L14.52 73.97L14.77 73.26L14.58 72.56L14.36 71.86L14.36 71.15L14.36 70.43L14.43 69.70L14.48 68.97L14.26 68.24L14.13 67.50L14.27 66.76L14.52 66.02L14.37 65.27L14.46 64.52L14.35 63.77L14.40 63.02L14.57 62.28L14.65 61.53L14.74 60.78L15.16 60.05L15.11 59.28L15.19 58.52L15.72 57.80L16.01 57.05L16.19 56.29L16.01 55.48L16.15 54.71L16.60 53.96L16.67 53.17L16.82 52.38L17.14 51.62L17.71 50.90L18.03 50.14L17.92 49.30L18.27 48.55L18.79 47.84L18.96 47.06L19.73 46.40L19.76 45.60L20.61 44.98L20.76 44.20L21.46 43.55L22.12 42.90L22.81 42.24L23.74 41.65L24.15 40.91L25.22 40.34L26.22 39.74L27.00 39.06L27.79 38.36L28.71 37.68L29.92 37.08L30.80 36.35L31.79 35.63L33.15 35.03L34.19 34.29L34.98 33.44L36.13 32.72L37.44 32.07L38.48 31.30L39.30 30.43L40.23 29.61L41.21 28.83L42.53 28.24L43.49 27.49L44.20 26.63L45.32 26.02L46.02 25.20L46.90 24.52L48.00 24.00L49.10 23.51L49.96 22.91L50.92 22.39L51.75 21.81L52.72 21.33L53.70 20.88L55.06 20.70L55.91 20.16L57.05 19.83L58.38 19.63L59.46 19.24L60.47 18.77L61.91 18.63L63.22 18.37L64.40 17.98L65.77 17.74L66.89 17.25L68.48 17.18L69.66 16.72L71.07 16.47L72.47 16.20L74.02 16.10L75.41 15.84L76.88 15.67L78.42 15.62L79.73 15.28L81.31 15.31L82.72 15.15L84.20 15.09L85.57 14.88L87.16 15.01L88.60 14.94L90.10 14.95L91.42 14.63L93.14 15.04L94.50 14.74L96.14 15.01L97.66 14.99L99.09 14.70L100.77 15.00L102.22 14.67L103.87 14.85L105.44 14.78L106.93 14.36L108.61 14.70L110.10 14.14L111.76 14.46L113.28 13.96L114.87 13.94L116.43 13.80L117.99 13.84L119.54 13.99L121.06 13.93L122.58 13.77L124.05 14.25L125.55 14.03L126.99 14.38L128.40 14.76L129.85 14.87 M129.70 15.66L128.28 15.55L126.80 15.79L125.34 16.07L123.92 15.86L122.45 16.41L121.01 16.39L119.56 16.51L118.11 16.89L116.66 17.18L115.19 17.31L113.74 17.57L112.21 17.35L110.81 17.92L109.25 17.61L107.87 18.15L106.31 17.91L104.83 17.97L103.44 18.26L101.88 18.00L100.54 18.33L98.98 18.06L97.53 18.03L96.22 18.27L94.65 17.96L93.45 18.35L91.87 18.04L90.50 18.08L89.08 18.06L87.83 18.30L86.37 18.23L85.04 18.37L83.66 18.46L82.46 18.78L81.00 18.80L79.79 19.14L78.54 19.42L77.23 19.65L76.09 20.06L74.83 20.35L73.62 20.67L72.22 20.80L71.26 21.34L69.87 21.46L68.78 21.84L67.55 22.08L66.51 22.46L65.64 22.96L64.41 23.15L63.31 23.43L62.51 23.92L61.58 24.31L60.41 24.52L59.81 25.13L58.86 25.50L57.94 25.91L56.93 26.27L56.07 26.75L55.12 27.20L54.44 27.84L53.76 28.51L52.86 29.07L51.76 29.55L51.08 30.29L49.97 30.83L49.10 31.52L48.56 32.39L47.65 33.09L46.68 33.77L45.57 34.40L44.68 35.13L44.04 35.96L43.24 36.70L42.08 37.30L41.18 37.98L40.63 38.77L39.73 39.42L38.76 40.02L38.17 40.72L37.35 41.33L36.46 41.90L35.64 42.48L35.11 43.12L34.73 43.79L33.78 44.29L33.43 44.95L32.93 45.56L32.48 46.18L32.16 46.82L31.36 47.36L31.32 48.07L30.53 48.62L30.53 49.34L29.98 49.96L29.82 50.65L29.53 51.32L28.80 51.92L28.51 52.60L28.49 53.32L28.23 54.00L27.79 54.66L27.29 55.31L27.16 56.01L26.73 56.67L25.98 57.30L25.59 57.97L25.33 58.64L25.34 59.34L24.91 60.00L24.37 60.66L24.34 61.34L24.02 62.02L23.74 62.69L23.60 63.37L23.38 64.05L23.07 64.73L23.01 65.41L22.78 66.09L23.00 66.78L23.17 67.46L23.11 68.13L23.01 68.81L23.22 69.48L23.48 70.13L23.70 70.78L23.94 71.42L23.96 72.07L24.02 72.71L24.51 73.31L24.27 73.96L24.60 74.57L24.83 75.18L24.82 75.81L25.16 76.40L25.13 77.04L25.31 77.65L25.34 78.29L25.57 78.91L25.65 79.56L25.36 80.27L25.79 80.89L25.75 81.59L25.78 82.29L25.90 82.98L26.03 83.69L25.96 84.44L26.28 85.14L26.67 85.82L26.78 86.57L27.42 87.22L27.92 87.90L28.19 88.64L28.67 89.33L29.47 89.95L30.06 90.62L30.75 91.27L31.53 91.90L32.64 92.43L33.31 93.09L34.35 93.65L35.15 94.28L36.42 94.77L37.53 95.31L38.36 95.94L39.77 96.37L40.90 96.91L41.83 97.52L42.94 98.07L44.28 98.51L45.48 99.01L46.50 99.58L47.71 100.06L48.96 100.51L49.88 101.10L51.02 101.58L52.17 102.04L53.23 102.52L54.47 102.90L55.69 103.26L56.57 103.80L57.71 104.18L59.04 104.42L59.96 104.91L61.40 105.05L62.14 105.64L63.38 105.90L64.57 106.19L65.77 106.47L66.94 106.79L67.98 107.21L69.24 107.48L70.37 107.86L71.55 108.22L72.74 108.60L74.21 108.74L75.28 109.26L76.55 109.60L77.85 109.94L78.83 110.61L79.99 111.12L81.18 111.61L82.54 111.89L83.73 112.36L85.07 112.64L86.24 113.13L87.36 113.68L88.83 113.70L89.97 114.19L91.15 114.60L92.40 114.90L93.70 115.06L95.01 115.18L96.27 115.37L97.62 115.36L98.96 115.34L100.33 115.23L101.60 115.33L103.01 115.06L104.36 114.94L105.59 115.16L107.02 114.73L108.30 114.82L109.66 114.55L110.99 114.42L112.26 114.63L113.60 114.34L114.88 114.50L116.18 114.48L117.48 114.41L118.77 114.45L120.06 114.31L121.34 114.22L122.60 113.91L123.89 114.29L125.13 113.93L126.42 114.08L127.63 113.63L128.95 113.87L130.17 113.51L131.46 113.46L132.60 112.83L133.90 112.76L135.14 112.47L136.44 112.33L137.53 111.63L138.79 111.36L140.16 111.31L141.33 110.83L142.58 110.53L143.70 109.99L144.96 109.73L146.20 109.46L147.24 108.90L148.30 108.43L149.64 108.39L150.64 107.92L151.99 107.94L152.98 107.53L154.09 107.29L155.42 107.33L156.59 107.18L157.58 106.86L158.76 106.74L159.93 106.60L160.90 106.26L162.09 106.12L163.59 106.23L164.76 106.01L165.85 105.68L167.02 105.40L168.23 105.12L169.83 105.10L170.86 104.61L172.31 104.40L173.62 104.05L174.72 103.54L176.43 103.41L177.70 102.97L178.88 102.46L180.24 102.07L181.58 101.66L183.15 101.38L184.26 100.85L185.99 100.67L186.92 100.08L188.35 99.76L189.55 99.34L190.95 99.04L191.89 98.55L193.05 98.16L194.00 97.71L194.86 97.23L195.84 96.82L196.94 96.45L197.51 95.89L198.50 95.50L199.19 94.99L199.95 94.50L200.70 94.01L201.51 93.53L201.95 92.92L202.68 92.41L203.33 91.86L204.01 91.31L204.64 90.75L205.25 90.17L205.98 89.63L207.06 89.17L207.61 88.57L208.46 88.05L208.90 87.43L209.94 86.95L210.61 86.40L211.39 85.86L212.07 85.31L212.69 84.74L213.91 84.29L214.27 83.68L214.98 83.13L215.80 82.60L216.58 82.05L217.33 81.48L217.91 80.88L218.25 80.24L218.84 79.63L219.26 78.98L219.68 78.32L220.32 77.67L220.86 77.00L221.11 76.29L221.09 75.55L221.16 74.82L221.56 74.10L221.88 73.37L221.75 72.61L221.55 71.85L221.87 71.12L221.97 70.38L221.76 69.63L221.78 68.89L221.86 68.16L221.64 67.42L221.69 66.70L221.12 65.98L221.12 65.26L221.15 64.54L220.86 63.83L220.72 63.12L220.42 62.41L220.15 61.71L219.75 61.01L219.37 60.31L219.11 59.60L219.10 58.87L218.50 58.19L218.13 57.48L217.28 56.83L217.14 56.10L216.49 55.42L215.97 54.73L215.20 54.07L214.29 53.44L213.55 52.79L213.20 52.07L212.08 51.49L211.63 50.79L210.96 50.13L209.77 49.57L209.08 48.92L208.60 48.22L207.72 47.61L206.90 46.98L206.19 46.33L205.37 45.70L204.67 45.05L203.71 44.47L203.04 43.81L202.61 43.09L201.94 42.43L201.10 41.83L200.34 41.22L200.01 40.48L199.38 39.85L198.38 39.36L197.73 38.77L197.33 38.09L196.75 37.50L196.04 36.98L195.15 36.54L194.61 35.99L193.57 35.67L192.76 35.26L192.22 34.76L191.28 34.44L190.33 34.14L189.57 33.77L188.81 33.39L187.65 33.22L186.90 32.84L186.12 32.47L185.28 32.12L184.19 31.90L183.09 31.67L182.36 31.23L181.40 30.89L180.47 30.52L179.18 30.36L178.59 29.74L177.42 29.48L176.46 29.06L175.35 28.74L174.33 28.35L173.56 27.77L172.32 27.52L171.51 26.94L170.14 26.79L169.06 26.41L168.00 26.01L166.78 25.75L165.68 25.37L164.57 25.01L163.58 24.51L162.14 24.44L160.81 24.27L159.73 23.81L158.37 23.64L157.04 23.43L155.68 23.23L154.38 22.95L152.86 22.93L151.41 22.83L150.12 22.47L148.72 22.26L147.31 22.06L146.04 21.62L144.68 21.31L143.29 21.06L141.83 20.97L140.61 20.39L139.33 19.92L137.99 19.60L136.50 19.71L135.17 19.43L133.96 18.77L132.63 18.50L131.26 18.42L129.87 18.47L128.54 18.26L127.23 17.90L125.85 17.88L124.47 17.98L123.11 17.64L121.70 17.83L120.30 17.79L118.87 17.66L117.44 17.84L116.00 17.99L114.55 18.01L113.12 18.32L111.61 18.12L110.16 18.34L108.70 18.42L107.12 18.08L105.64 18.12L104.25 18.43L102.78 18.43L101.19 18.07L99.77 18.18L98.24 17.98L96.74 17.84L95.42 18.05L93.83 17.72L92.47 17.81L91.08 17.85L89.59 17.71L87.92 17.32L86.62 17.53L85.18 17.53L83.56 17.32L82.05 17.27L80.67 17.43 Z" fill="#fff"/></svg>